<?xml version="1.0" encoding="utf-8"?>
<!-- Generator: Adobe Illustrator 21.0.0, SVG Export Plug-In . SVG Version: 6.00 Build 0)  -->
<svg version="1.1" id="Layer_1" xmlns="http://www.w3.org/2000/svg" xmlns:xlink="http://www.w3.org/1999/xlink" x="0px" y="0px"
	 viewBox="0 0 512 408" style="enable-background:new 0 0 512 408;" xml:space="preserve">
<style type="text/css">
	.st0{fill:url(#SVGID_1_);}
	.st1{fill:#DA0A0A;}
	.st2{font-family:'Tahoma-Bold';}
	.st3{font-size:133.9466px;}
	.st4{fill:#EBFFF0;}
	.st5{font-family:'MicrosoftNewTaiLue-Bold';}
	.st6{font-size:83.9973px;}
	.st7{fill:#F44040;}
	.st8{fill:#D6FFE0;}
</style>
<linearGradient id="SVGID_1_" gradientUnits="userSpaceOnUse" x1="54.6128" y1="368.3049" x2="502.0137" y2="13.1579" gradientTransform="matrix(1 0 0 -1 0 410)">
	<stop  offset="0" style="stop-color:#9013FE"/>
	<stop  offset="1" style="stop-color:#6610F2"/>
</linearGradient>
<path class="st0" d="M59.5,53.3C58.6,25.6,80.2,0,109.4,0h299.4c29.2,0,50.8,25.6,49.9,53.3c-0.9,26.6,0.3,61.2,9,89.3
	c7.3,23.7,18.8,40,36.5,46.1c6.6,2.2,11,8.4,11,15.3v0c0,6.9-4.4,13.1-11,15.3c-17.7,6-29.2,22.4-36.5,46.1
	c-8.7,28.1-9.9,62.7-9,89.3c1,27.7-20.6,53.3-49.9,53.3H109.4c-29.2,0-50.8-25.6-49.9-53.3c0.9-26.6-0.3-61.2-9-89.3
	c-7.3-23.7-18.8-40-36.6-46.1c-6.6-2.2-11-8.4-11-15.3v0c0-6.9,4.4-13.1,11-15.3c17.7-6,29.3-22.4,36.6-46.1
	C59.3,114.5,60.5,80,59.5,53.3z"/>
<text transform="matrix(1 0 0 1 259.0599 206.5495)" class="st1 st2 st3">T</text>
<text transform="matrix(1 0 0 1 76.603 318.2607)" class="st4 st5 st6">UG-TASK</text>
<path class="st7" d="M222.1,128.2c-2.6,3.2-6.8,4.8-12.4,4.8c-5.8,0-9.9-1.7-12.5-5c-2.6-3.3-3.8-8.3-3.8-15.1V52.1H169v62.2
	c0,12.2,3.5,21.4,10.6,27.7c7,6.3,17.1,9.5,30.2,9.5c9.9,0,18.1-1.8,24.4-5.3c-5-7-7.9-15.7-8.7-26.1
	C224.8,123.6,223.7,126.2,222.1,128.2z"/>
<path class="st7" d="M249.5,67.1v-17h-24.5v51.5c1.7-10.4,6-19.1,12.8-26C241.3,72.1,245.2,69.3,249.5,67.1z"/>
<path class="st7" d="M250.5,115.2c0-0.3,0-0.6,0-0.9v-2.4c0,0.7,0,1.3,0,2C250.5,114.3,250.5,114.7,250.5,115.2z"/>
<path class="st8" d="M259.1,109.1v18.7h28.7l0,19.2c-0.9,0.1-1,0.1-2.2,0.1c-1.2,0-2.2,0.1-3.1,0.1c-9.9,0-17.7-2.7-23.4-8.1
	c-5.5-5.2-8.3-13.2-8.5-23.9c-0.2,11.5-3.6,20.5-10.3,26.7c-1.8,1.7-3.8,3.2-6.1,4.4c1.4,2,3,3.8,4.8,5.5
	c9.1,8.8,21.3,13.2,36.6,13.2c6.6,0,13.4-0.8,20.2-2.5c6.8-1.7,12.4-3.4,16.6-5.1v-48.4H259.1z"/>
<path class="st8" d="M226.1,103.6c-0.5,3.4-0.8,6.9-0.8,10.7c0,2,0.1,4,0.2,6c0.4-2.2,0.6-4.6,0.6-7.3V103.6z"/>
<path class="st8" d="M252.8,99.8c1.5-4,3.5-7.3,6.1-9.9c2.7-2.7,5.8-4.7,9.2-6c3.4-1.3,7.3-2,11.4-2c3.6,0,7,0.5,10.2,1.5
	c3.2,1,6,2.2,8.5,3.6c2.1,1.2,4.2,2.6,6.4,4.3c2.2,1.7,3.9,3,5.1,3.9h2.2V72.4c-5.5-2.7-10.7-4.8-15.8-6.3
	c-5.1-1.5-11.7-2.3-19.9-2.3c-9.9,0-18.4,1.8-25.7,5.4v42.7C250.7,107.3,251.4,103.3,252.8,99.8z"/>
<path class="st8" d="M250.5,115.2c0-0.4,0-0.9,0-1.3c0-0.7,0-1.3,0-2V69.1c-4.4,2.2-8.2,5-11.6,8.4c-6.9,6.9-11.1,15.6-12.8,26v9.3
	c0,2.7-0.2,5.2-0.6,7.3c0.8,10.4,3.7,19.1,8.7,26.1c2.3-1.2,4.3-2.7,6.1-4.4C246.9,135.6,250.3,126.7,250.5,115.2z"/>
</svg>
